# xmcd CD database file
#
# Track frame offsets:
#	150
#	23900
#	40152
#	55260
#	73400
#	86890
#	103560
#	130357
#	145072
#	160605
#	176967
#	195297
#	212497
#	232250
#
# Disc length: 3287 seconds
#
# Revision: 2
# Processed by: cddbd v1.5.1PL0 Copyright (c) Steve Scherf et al.
# Submitted via: CDex 1.51
#
DISCID=ca0cd50e
DTITLE=Lou Rawls - It's Supposed To Be Fun
DYEAR=1990
DGENRE=Soul
TTITLE0=It's Supposed to be Fun
TTITLE1=Don't Let Me Be Misunderstood
TTITLE2=All Around the World
TTITLE3=Good Morning Blues
TTITLE4=Moonglows
TTITLE5=Any Day Now
TTITLE6=This Bitter Earth
TTITLE7=If You Gotta Make A Fool of Somebody
TTITLE8=One More Time
TTITLE9=You're the One
TTITLE10=I Wonder Where Our Love Has Gone
TTITLE11=But I Do
TTITLE12=Good Night My Love
TTITLE13=The Last Night of the World
EXTD=YEAR: 1990
EXTT0=
EXTT1=
EXTT2=
EXTT3=
EXTT4=
EXTT5=
EXTT6=
EXTT7=
EXTT8=
EXTT9=
EXTT10=
EXTT11=
EXTT12=
EXTT13=
PLAYORDER=
